<svg width="200" height="200" viewBox="0 0 200 200" fill="none" xmlns="http://www.w3.org/2000/svg">
<path d="M112.119 69.5429C112.252 65.2665 112.315 58.412 112.315 54.1289L112.296 31.8886L112.314 12.8799C112.317 9.5632 112.345 6.21428 112.244 2.89769C112.211 1.79521 111.409 1.0899 110.571 0.505073C106.404 0.0952055 99.8482 -0.108844 95.5888 0.0587353C95.0061 0.0842781 94.3837 0.109378 93.8018 0.135068C90.9154 0.262045 89.6747 -0.168936 87.6034 2.0437C87.7525 18.1819 87.8031 34.3209 87.7557 50.4597C87.7708 54.8441 87.7539 59.2285 87.7051 63.6126C87.6943 64.9176 87.7528 68.756 87.5005 69.9044C87.0684 69.8593 86.9785 69.7389 86.6145 69.3805L51.3182 34.0385C47.6269 30.2891 42.8018 25.2833 38.8589 21.8307C37.1257 20.3131 23.2764 35.0348 21.986 37.4293C22.0505 38.1063 22.1109 38.7837 22.1673 39.4614C29.9127 47.6499 38.2573 55.5004 46.1696 63.5547C50.0364 67.1527 53.5091 71.6106 57.7159 74.7931C59.8401 76.3998 62.8972 77.8098 65.501 78.2904C73.9648 79.8525 83.1848 78.5978 91.811 78.9696C96.194 79.1586 100.672 78.4741 104.962 79.5345C109.406 80.5924 112.116 82.5012 115.279 85.6537C121.918 92.269 121.169 100.939 121.155 109.542C121.144 116.066 121.118 122.863 121.15 129.402C121.202 133.712 122.653 138.619 125.216 142.094C128.301 146.276 132.817 150.052 136.472 153.79L152.124 169.563C154.617 172.064 156.987 174.774 159.617 177.124C160.143 177.594 161.049 178.341 161.78 178.338C163.971 178.329 176.142 165.378 177.864 162.966C178.158 162.554 178.195 161.927 178.108 161.441C178.044 161.084 177.904 160.769 177.686 160.482C175.767 157.963 173.044 155.739 170.789 153.498C168.796 151.518 166.903 149.331 164.788 147.493C158.221 141.054 151.743 134.373 145.212 127.88L135.814 118.398C134.391 116.96 130.921 113.754 130.093 112.253C134.857 112.47 139.753 112.411 144.539 112.433L173.109 112.411C177.969 112.406 182.835 112.346 187.694 112.403C190.535 112.436 193.567 112.727 196.384 112.483C197.245 112.408 198.231 112.225 198.885 111.613C200.231 110.357 199.992 101.367 199.971 99.1181C199.953 97.1721 200.102 90.076 198.951 88.5922C198.57 88.1017 197.605 87.8042 197.013 87.7581C194.209 87.5402 191.279 87.7141 188.462 87.7153L170.365 87.7739L144.843 87.7211C141.046 87.7082 137.229 87.6483 133.431 87.6539C132.49 87.6552 131.215 87.8959 130.379 87.4457L130.307 87.2679C133.262 84.2167 136.411 81.2286 139.419 78.2089L172.256 45.3371C174.058 43.5481 175.898 41.8091 177.593 39.921C178.365 39.062 178.35 37.7698 177.659 36.9415C175.36 34.1814 164.392 22.0182 161.412 21.7491C159.238 22.7064 150.862 31.7384 148.673 33.9488L124.115 58.4129C121.897 60.5719 119.705 62.7581 117.54 64.9709C116.534 65.9973 113.372 69.7121 112.119 69.5429Z" fill="#202020"/>
<path d="M87.9916 129.868C87.9916 133.041 87.7207 136.957 87.7505 140.27C87.8029 144.735 87.7439 149.011 87.7505 153.477L87.751 186.28C87.7696 189.592 87.7629 192.918 87.7553 196.214C87.7504 198.32 88.3594 199.446 90.584 199.617C96.7133 200.085 103.073 200.138 109.204 199.699C109.787 199.658 111.238 199.208 111.628 198.864C112.652 197.956 112.314 194.07 112.308 192.803L112.284 184.403L112.324 117.307L112.348 106.477C112.364 103.959 112.427 101.148 112.234 98.8302C111.69 92.2606 105.244 87.1777 98.7781 87.6757C98.1523 87.7239 97.2726 87.6744 96.6277 87.6757L88.9967 87.6927H63.7274L24.2842 87.7512L9.56061 87.7178C7.31041 87.7149 4.51219 87.6282 2.32397 87.7234C1.60254 87.9895 1.13644 88.222 0.800079 88.9448C-0.444131 91.618 -0.121495 108.371 0.975269 111.207C1.09792 111.525 1.23887 111.724 1.47605 111.963C3.65408 112.611 16.5764 112.396 19.5109 112.4L59.2553 112.451C61.419 112.467 63.5835 112.479 65.7462 112.479C66.7308 112.479 69.0902 112.263 69.8178 112.437C69.8809 112.979 66.6493 115.898 66.0259 116.512L58.8067 123.694C49.0713 133.294 39.3878 142.948 29.7569 152.653C28.0165 154.441 22.8654 159.188 21.8679 160.955L21.9277 161.146C22.0684 161.604 22.1496 161.976 22.1955 162.45C22.4109 164.679 34.0478 175.584 36.3086 177.306C36.9849 177.82 37.9892 178.459 38.8832 178.39C39.4326 178.347 40.6502 177.018 41.0571 176.627C43.6083 174.165 46.0272 171.559 48.5404 169.06L69.6006 148.033C73.0665 144.601 76.5112 141.146 79.9344 137.669C82.0706 135.522 87.7907 130.119 87.9916 129.868Z" fill="#202020"/>
</svg>
